<!-- icon666.com - MILLIONS vector ICONS FREE --><svg id="Layer_1" enable-background="new 0 0 66 66" viewBox="0 0 66 66" xmlns="http://www.w3.org/2000/svg"><g><path d="m57.06 20.14v10.58l7-5.01z" fill="#000000" style="fill: rgb(255, 255, 255);"></path><path d="m42.48 43.64 22.24 20.1v-36.03z" fill="#000000" style="fill: rgb(255, 255, 255);"></path><path d="m55.05 32.16v-25.35h-44.1v25.35l22.04 15.8zm-37.69-18.63h31.28c.56 0 1 .45 1 1s-.45 1-1 1h-31.28c-.56 0-1-.45-1-1s.45-1 1-1zm0 6.21h31.28c.56 0 1 .45 1 1s-.45 1-1 1h-31.28c-.56 0-1-.45-1-1s.45-1 1-1zm0 6.21h31.28c.56 0 1 .45 1 1s-.45 1-1 1h-31.28c-.56 0-1-.45-1-1s.45-1 1-1zm-1 7.21c0-.55.45-1 1-1h31.28c.56 0 1 .45 1 1s-.45 1-1 1h-31.28c-.55.01-1-.44-1-1z" fill="#000000" style="fill: rgb(255, 255, 255);"></path><path d="m32.99 1-4.77 3.8h9.55z" fill="#000000" style="fill: rgb(255, 255, 255);"></path><path d="m33.58 50.01c-.35.25-.82.25-1.17 0l-7.22-5.18-22.31 20.17h60.23l-22.3-20.17z" fill="#000000" style="fill: rgb(255, 255, 255);"></path><path d="m8.94 20.14-7 5.57 7 5.02z" fill="#000000" style="fill: rgb(255, 255, 255);"></path><path d="m1.28 27.71v36.03l22.24-20.1z" fill="#000000" style="fill: rgb(255, 255, 255);"></path></g></svg>